<svg xmlns="http://www.w3.org/2000/svg" width="72" height="30" viewBox="0 0 72 30"><g fill-rule="evenodd" clip-rule="evenodd"><path fill="#fff" d="M0 0h192.756v192.756H0V0z"/><path d="M72.511 38.536c-4.637 11.912-10.016 23.701-15.107 35.469-3.4 7.626-6.781 15.334-10.675 22.692-.619 1.092-1.402 2.205-2.103 3.235h27.906l-1.133-3.317a30.635 30.635 0 0 1-.846-5.668c.145-4.288 1.071-8.389 3.194-12.078h40.623c3.812 6.471 6.759 13.829 8.924 21.063h27.72c-2.122-2.782-4.06-5.647-5.914-8.574-8.966-14.9-16.859-30.688-24.588-46.249-4.473-9.13-9.048-18.363-12.861-27.844l-.556-1.484c-.413-1.195-.578-1.855-.619-3.133H81.208c.104.927.124 1.401.021 2.267-1.175 4.637-2.948 9.09-4.68 13.541a482.046 482.046 0 0 1-4.038 10.08zm20.961-5.338l14.241 30.976H79.642l13.83-30.976zm-22.528 14.2C64.699 62.422 58.167 77.55 51.16 92.266c-.908 1.896-1.876 3.896-2.948 5.729h21.62c-2.287-6.739-1.133-15.147 2.845-21.063h42.766c3.937 6.368 6.698 13.397 9.089 20.445l.186.618h22.402c-5.09-7.378-9.377-15.396-13.602-23.268-6.308-11.707-12.325-23.702-18.096-35.656-3.689-7.79-7.749-15.704-10.573-23.886l-.165-.598H83.249c0 .701-.393 1.772-.556 2.432-2.433 8.121-5.895 16.056-9.048 23.949-.887 2.123-1.793 4.306-2.701 6.43zM93.43 28.499l17.292 37.613H76.674L93.43 28.499z"/><path d="M38.01 115.082h80.006c12.439 0 25.367.08 44.148-5.53v10.652s-18.863 4.39-43.417 4.39H38.01v-9.512z" fill="#cc2229"/><path d="M43.698 128.251h31.709c25.042 0 87.16.812 95.209 6.261v10.406c-7.073-2.357-38.782-7.154-77.24-7.154H43.698v-9.513z" fill="#448648"/><path d="M38.01 141.421h32.441c22.928 0 46.507.976 67.078 6.911 20.57 5.935 33.092 15.204 33.092 15.204v11.952s-14.554-12.685-40.491-19.025c-25.854-6.424-59.434-5.529-59.434-5.529H38.01v-9.513z" fill="#264a8e"/></g></svg>

<svg width="72" height="30" viewBox="0 0 72 30" fill="none" xmlns="http://www.w3.org/2000/svg">
									<path d="M9.8393 10.2032C4.22951 10.3257 -0.0459221 14.7356 0.000372391 20.2752C0.0412204 25.3548 4.57808 30.3608 10.6862 29.9226C15.5145 29.5768 19.9015 25.4119 19.8525 20.0057C19.8035 14.5995 15.1904 10.0916 9.8393 10.2032ZM9.89649 25.7005C6.87101 25.7005 4.39834 23.1144 4.40924 19.9839C4.39525 19.2507 4.52792 18.522 4.79947 17.8407C5.07102 17.1594 5.47597 16.5392 5.99056 16.0164C6.50515 15.4937 7.11902 15.0789 7.79613 14.7966C8.47324 14.5142 9.19995 14.3698 9.93362 14.372C10.6673 14.3742 11.3931 14.5228 12.0686 14.8092C12.744 15.0956 13.3554 15.514 13.8668 16.0398C14.3783 16.5656 14.7796 17.1882 15.0471 17.8711C15.3146 18.554 15.4429 19.2834 15.4246 20.0166C15.4409 23.1008 12.9111 25.7059 9.88832 25.7005H9.89649Z" fill="currentColor"></path>
									<path d="M62.8086 29.4855H67.1222V10.6372H62.8086V29.4855Z" fill="currentColor"></path>
									<path d="M67.6816 0.172852V6.13439H71.5322C71.6738 6.13439 71.8046 6.13439 72.0006 6.11534V0.172852H67.6816Z" fill="currentColor"></path>
									<path d="M31.5648 25.7016C28.5393 25.7016 26.0667 23.1156 26.0776 19.9851C26.0936 18.5291 26.6764 17.1366 27.7023 16.1029C28.7282 15.0692 30.1166 14.4757 31.573 14.4482C32.4198 14.4541 33.2537 14.6557 34.0095 15.0373C34.7654 15.4188 35.4227 15.97 35.9301 16.6477L40.0667 15.0144C38.2884 12.0853 35.0669 10.1145 31.4995 10.1989C25.8897 10.3214 21.6142 14.7313 21.6605 20.2709C21.7014 25.3505 26.2382 30.3565 32.3464 29.9183C33.9908 29.7803 35.5761 29.2408 36.9631 28.347C38.3501 27.4532 39.4963 26.2326 40.3009 24.7924L36.2542 22.9931C35.7705 23.8086 35.0851 24.486 34.2638 24.9604C33.4426 25.4347 32.5132 25.69 31.5648 25.7016Z" fill="currentColor"></path>
									<path d="M52.4097 10.1387C51.2512 10.1119 50.1066 10.3947 49.0941 10.958C48.0816 11.5212 47.2379 12.3445 46.6501 13.3427V0.172852H42.293V29.4688H46.6501C46.6501 29.1721 46.6501 18.7816 46.6501 18.7816C46.6501 15.6946 47.8619 13.4352 50.8084 13.4352C54.6046 13.4352 54.6209 17.4178 54.6209 19.6962C54.6209 22.9165 54.6209 25.5189 54.6209 28.7393V29.4987H59.0271C59.0271 29.3708 59.0488 29.2728 59.0488 29.1721C59.0488 25.5108 59.0951 21.8522 59.0325 18.1909C58.9916 15.6538 58.5015 10.1387 52.4097 10.1387Z" fill="currentColor"></path>
								</svg>